# xmcd
#
# Track frame offsets:
#	150
#	17760
#	35447
#	56226
#	71362
#	87322
#	103971
#	121518
#	139497
#	156010
#
# Disc length: 2301 seconds
#
# Revision: 5
# Processed by: cddbd v1.5.2PL0 Copyright (c) Steve Scherf et al.
# Submitted via: EasyCDDAExtractor 15.3.0.1
#
DISCID=8508fb0a
DTITLE=Rocio Durcal - Caramelito
DYEAR=2003
DGENRE=Latin
TTITLE0=Yo Por Ti
TTITLE1=Despues De Tu Amor
TTITLE2=Es Mi Castigo
TTITLE3=Caramelito
TTITLE4=Estrellita De La Mañana
TTITLE5=Como Puedo
TTITLE6=Hasta Que Vuelvas
TTITLE7=El
TTITLE8=Por Amarme Tanto
TTITLE9=Un Pedazo De Luna
EXTD=YEAR: 2003
EXTT0=
EXTT1=
EXTT2=
EXTT3=
EXTT4=
EXTT5=
EXTT6=
EXTT7=
EXTT8=
EXTT9=
PLAYORDER=
